<svg
  class="svg-color"
  width="750"
  height="225"
  viewBox="0 0 750 225"
  xmlns="http://www.w3.org/2000/svg"
>
  <g clip-path="url(#clip0_191_16)" fill="currentColor">
    <path d="M22.6755 191.104L93.8083 39.0892C86.3533 24.5082 79.2089 18.6137 64.299 15.2012H107.165C107.786 22.6468 111.514 30.7129 115.552 39.0892L192.897 201.031C197.556 210.649 200.663 215.612 209.36 221.196H161.524C175.502 215.302 176.123 208.167 171.153 198.239L160.282 175.282H41.0023L33.8579 190.483C25.7817 207.236 30.1305 215.922 41.9342 221.196H0C9.93995 214.992 15.2205 207.236 22.6755 191.104ZM155.933 165.975L100.331 48.7064L45.351 165.975H155.933Z" />
    <path d="M228.929 192.965V38.469C228.929 21.7164 225.202 13.0298 215.573 8.68655L246.324 0V144.569L302.858 98.3441C316.215 87.1757 316.525 77.8687 305.653 73.5254H358.77C342.307 79.1096 331.435 85.9348 320.253 94.9315L285.463 123.473L340.754 200.411C347.898 210.339 356.285 216.543 366.225 221.197H315.593C322.427 217.784 323.98 214.372 323.98 211.269C323.98 207.236 320.874 202.893 315.593 195.447L272.106 134.331L246.324 155.117V192.965C246.324 208.787 250.052 217.164 259.681 221.197H215.573C225.202 217.164 228.929 208.787 228.929 192.965Z" />
    <path d="M385.484 192.965V106.1C385.484 88.4164 381.445 78.1787 372.127 73.5252H402.878V112.615C407.538 84.3834 424.622 70.4229 449.472 70.4229C474.322 70.4229 493.27 85.0038 497.308 113.545C501.967 84.0731 519.362 70.4229 544.212 70.4229C573.411 70.4229 593.291 89.3471 593.291 127.506V192.965C593.291 208.787 597.018 217.163 606.647 221.197H562.539C572.168 217.163 575.896 208.787 575.896 192.965V127.506C575.896 98.0337 562.228 86.2448 538 86.2448C513.771 86.2448 497.929 96.7927 497.929 127.506V192.965C497.929 208.787 501.657 217.163 511.286 221.197H467.488C476.807 217.163 480.534 208.787 480.534 192.965V127.506C480.534 97.7234 467.177 86.2448 442.949 86.2448C417.478 86.2448 402.878 98.9644 402.878 127.506V192.965C402.878 208.787 406.606 217.163 416.235 221.197H372.127C381.445 217.163 385.484 208.787 385.484 192.965Z" />
    <path d="M619.538 148.292C619.538 106.1 647.494 70.4229 688.497 70.4229C721.112 70.4229 743.166 92.4494 745.341 122.232L745.651 128.747H637.554C636.933 133.4 636.623 138.054 636.623 142.707C636.623 185.52 663.336 207.236 693.156 207.236C715.21 207.236 739.749 195.757 750 163.183C745.651 207.546 716.453 224.299 687.875 224.299C649.669 224.299 619.228 193.586 619.538 148.292ZM727.635 120.371C726.703 94.6211 713.036 78.4889 688.186 78.4889C662.094 78.4889 645.631 96.4825 639.418 120.371H727.635Z" />
    <path d="M735.97 35.418H633.568V43.3289H735.97V35.418Z" />
  </g>
  <defs>
    <clipPath id="clip0_191_16">
      <rect width="750" height="224.299" fill="white" />
    </clipPath>
  </defs>
</svg>
